<svg xmlns="http://www.w3.org/2000/svg" viewBox="0 0 469.69 114.81"><defs><style>.cls-1{fill:#fff;}</style></defs><title>clothing_ribbon</title><g id="Layer_2" data-name="Layer 2"><g id="Layer_1-2" data-name="Layer 1"><path d="M465.34,36.29c-17.62-3.76-35.49-5.84-53.35-7.86-3.29-.38-5.23-1.34-4.44-4.79,1.87-8.18-3.12-11.27-9.56-13.59A167.68,167.68,0,0,0,323.21.91C283.27,5,244,13.71,204.37,19.87c-26.07,4-52.27,4.76-79.12,5.7,1.22-6.43-1.22-7.68-7.13-8.62C88,12.15,57.69,12.53,27.37,13.56A94,94,0,0,0,0,18.48c17.26,7.47,32.1,15.93,42.91,30C28.74,58.77,15.22,68.52,5.75,85c3.5-1.65,5.27-2.48,7-3.32l-.07.07C30.18,78,46.7,82,63,87.88c4.81,1.72,8.21,4.21,7.19,10.08-.35,2,.5,3.15,2.73,3.93,4.25,1.48,8.41,3.1,12.94,3.57A399,399,0,0,0,190,102.79c40.28-6.39,80.2-15.06,121-18.31,8.3-.66,13.19,0,11.35,9.93-.65,3.51,1,5.72,4.81,4.59,20.61-6.1,41.76-4.55,62.56-3.06,20.13,1.44,40.59,3.08,59.41,11.92a3.65,3.65,0,0,0,3.15-.23c1.48-1.09.24-2.49-.36-3.54-7.06-12.24-14.12-24.49-21.39-36.62-1.13-1.89-1.41-3,.06-4.75,9.91-11.42,20.88-21.07,36.94-22.3a2,2,0,0,0,2.16-2.22C468.71,36.52,466.91,36.63,465.34,36.29ZM69,30.45c.3,18.78.12,37.56.12,56.45C53.37,81,37.18,77,20.07,79.26c-2.54.33-5.24.41-7.27,2.4-3.49-1.8-.37-3.49.45-4.52,9.37-11.61,20.12-21.63,34.23-28.75-10-13.9-24.31-21.91-40.69-29.79,36.63-6.26,72-4.12,107.56.64-6.37,1.06-12.71,2.37-19.12,3.12a157.38,157.38,0,0,1-19.39,1.23C70.71,23.55,68.89,25.1,69,30.45Zm167.7,60.47c-37.84,7-75.62,14.46-114.38,13.22-13.29-.43-26.66-.24-39.82-2.69-5.67-1.05-8.69-3.38-8.58-10.21q.41-27.46-.94-55c-.36-7.36,1.93-9.47,9-8.94a542.26,542.26,0,0,0,77.85.57C202.74,25,245,17,287.24,9.6c34.1-6,67.93-9.18,101.94.4,9.44,2.67,14.83,5.71,15,17.66.25,19.75,2.07,39.5.86,59.45-15.44-2-30.55-4.26-45.74-5.69C317.9,77.54,277.18,83.38,236.67,90.92ZM427.14,61.3c-2.45,2.92-2.39,4.76-.28,8.09C433.59,80,439.67,91,446.5,102.74A309.8,309.8,0,0,0,343.6,93c7.37-4.22,31.84-6.43,44.91-4.4,1.81.29,3.61.58,5.43.84,15.25,2.12,15.19,2.11,15.51-13.61a337.66,337.66,0,0,0-1.59-44.33l50.78,7A80.42,80.42,0,0,0,427.14,61.3Z"/><path class="cls-1" d="M426.86,69.39C433.59,80,439.67,91,446.5,102.74A309.8,309.8,0,0,0,343.6,93c7.37-4.22,31.84-6.43,44.91-4.4,1.81.29,3.61.58,5.43.84,15.25,2.12,15.19,2.11,15.51-13.61a337.66,337.66,0,0,0-1.59-44.33l50.78,7a80.42,80.42,0,0,0-31.5,22.84C424.69,64.22,424.75,66.06,426.86,69.39Z"/><path class="cls-1" d="M405,87.11c-15.44-2-30.55-4.26-45.74-5.69-41.39-3.88-82.11,2-122.62,9.5-37.84,7-75.62,14.46-114.38,13.22-13.29-.43-26.66-.24-39.82-2.69-5.67-1.05-8.69-3.38-8.58-10.21q.41-27.46-.94-55c-.36-7.36,1.93-9.47,9-8.94a542.26,542.26,0,0,0,77.85.57C202.74,25,245,17,287.24,9.6c34.1-6,67.93-9.18,101.94.4,9.44,2.67,14.83,5.71,15,17.66C404.42,47.41,406.24,67.16,405,87.11Z"/><path class="cls-1" d="M114.35,19.24c-6.37,1.06-12.71,2.37-19.12,3.12a157.38,157.38,0,0,1-19.39,1.23c-5.13,0-7,1.51-6.87,6.86.3,18.78.12,37.56.12,56.45C53.37,81,37.18,77,20.07,79.26c-2.54.33-5.24.41-7.27,2.4-3.49-1.8-.37-3.49.45-4.52,9.37-11.61,20.12-21.63,34.23-28.75-10-13.9-24.31-21.91-40.69-29.79C43.42,12.34,78.81,14.48,114.35,19.24Z"/><path d="M393.64,48.1c-4.55,7.36-11.78,9.42-20.53,14.61.83-5.76,1.35-8.59,2.15-12,1.3-5.52-.87-8.69-8.1-8.23-.12,1.62.29,3.55-1.48,5.53-1.69-5.41-6-7.84-11-7-7.25,1.18-12.92,5.35-14.93,11.7-1.15,3.64-4.44,4.95-7.2,9.19.08-6.48,3-9.21,4.12-12.79.69-2.3,3-4.58.21-6.82s-6.11-1.65-9.35-.27c-6.68,2.85-11.92,7.71-17.2,14.69a69.75,69.75,0,0,0,1.31-7.47c.13-2.56-.43-5-2.89-6.35-2.27-1.25-4.19.13-6.31,1.3C297.28,47,295,52.38,291.26,56.89c-3.22,3.89-5.55,8.56-10.17,12.24-.29-5,1.48-9.5,3.34-13.82,4.74-11,4.74-11.13-5.2-11.93-.19,0-.44.18-.66.27a50.4,50.4,0,0,1-14.89,28.5c1-3,2.07-5.83,2.89-8.72,1.43-5,4.81-11.19-.08-14.18-5.22-3.19-9.86,2.6-14.31,6.55a33.71,33.71,0,0,0-5,5.79c-2.37,3.38-4.51,6.91-6.74,10.29a5.43,5.43,0,0,1-.48-4.63c1.63-5.06,3.58-10.27,5-15.47,1.82-6.86,4-11.47,11.51-11.29,4.25.1,8.85-3.24,10.05-8.65s-1.22-8-6-9.21-11.32,1.9-15.92,9.05c-4.47,6.95-8.45,9.12-14.55,6.27.65-2.79,2.88-5.16,2.79-8-7-.35-8.42.26-12,7.8-1,2.1-2.14,2.08-3.61,2.28-7.52,1-14,6.76-14.7,13.49,4.51-6,9-11,15.6-10.77-1.72,12.46-10.08,25.36-22.68,28.68.86-6.81,2-13.92-6.57-14.62-3.9-.32-7.48,2-8.34,7.06-1.81,10.7,6,10.14,11,12.32-2.47,5.72-4.12,11.53-8.68,15-.78.59-1.49,2-3,1.11a2.31,2.31,0,0,1-1-3,56.34,56.34,0,0,1,5.56-12c-5-.79-10-4.59-12.13,4.56-1.26,5.48-5,8.39-8.33,10.75-1.14.8-2.51,1.6-3.87,1s-1-2-.68-3.2c1.47-5.46,2.51-12,4.43-18.1,1-3.26,1.1-7.91,4.54-9.41,8-3.47,13.41-10.63,17.16-20.57,1.13-3,1.69-6.19-.22-9.34s-4.08-5.13-7.24-4.11a14.92,14.92,0,0,0-7.91,6.2C160.9,48.9,155.5,65.6,151,81.59c-.53,1.86-.83,3.45-2.53,4.26a70.56,70.56,0,0,1-17.66,6.23c-1.27.23-2.77.9-4.17-.67-2.41-2.71-2.91-6.89-1.15-10.85,2.28-5.15,4.69-11,10.36-13.28-.26,2.83-.42,4.53-.64,6.9a6.18,6.18,0,0,0,2.42-6.87c-.55-2.51-2-4.13-4.08-4.57-7.28-1.52-12.86,3.11-17.09,8.62C109.3,80.66,99.17,87.2,88,78.64c-.31-.24-.76-.19-1.92-.46,5.25,5.52,10,7.59,14.79,7a36,36,0,0,0,12.85-4.58c1.83,10.64,8.08,13.33,16.21,13.08a38.16,38.16,0,0,0,19.85-5.94c2.92,11.24,7.88,10,20.62,2.92,4.4,6.29,10.88,6.39,16.65-.58,1.75-2.12,3-4.94,4.37-7.63,1.26-2.41,1.93-6,3.74-7.3,4.08-2.94,8.72-4.86,13.72-7.7-1.2,4.32-2.06,8-3.3,11.45-1.58,4.42-2.74,8.76,1.29,10s8-1.8,11.37-5.21c4.11-4.2,8.16-9.05,10.88-12.23-.63,2.41-1.9,7.23-3.05,11.35-.4,1.43-1.63,3.68,1.14,3s6.8,1,8.57-3.12c4.43-10.26,11.7-19,19.09-27,.87-.94,1.94-2.44,3.18-1.92s1.07,2.23.78,3.64c-1,4.94-2.17,9.86-3.23,14.53-.63,2.75-2.31,5.9.54,7s5.53-1.64,7.7-3.72c3.37-3.24,6.43-7,9.32-10.2.23,2.4-1.58,6.86,2.65,7.63,3.27.6,6.52-1.16,9-3.92,2.66-3,4.9-6.4,7.35-9.59,4-5.21,6.65-11.63,13.65-14.53-1.14,6.89-4.37,12.9-6.8,19.35-.54,1.43-2.08,4.34.43,3.88,2.73-.5,6.19,3.61,8.35-1.71,3.75-9.24,9.09-16.39,17.33-20.83.85-.46,1.84-1.19,2.57-.51a2.45,2.45,0,0,1,.39,2.29c-1.5,4.21-3.16,7.88-4.77,13.2-.75,2.47-1,4.88.7,6.67s3.71.43,5.63-.47c4-1.89,6.32-6.24,9.66-9.13,5.2,13.5,17.56,11.29,24.94,1.12,0,5.09-.43,9-5.34,11-4.43,1.82-8.31,5.42-12.31,8.63-2.95,2.37-5.18,5.79-7.26,9.16-5.93,9.64-4.17,22.36,7.57,26.39,12.53,4.3,20.93-5.24,21.85-17.14.48-6.14,1.34-12.09,1.57-18,.36-9,3.89-15.77,10.71-17.36C387.1,59.77,391.14,56,394.54,51,395.26,49.9,395.49,49,393.64,48.1ZM258.12,25.88c.9-1,2.14-1.82,3.52-1.25,2.63,1.1,3.7,3,3.26,6.11a7.46,7.46,0,0,1-4.05,6,20,20,0,0,1-11.07,1.85C251.72,33.13,254.93,29.29,258.12,25.88ZM184.51,35c-1.81,10.61-7.44,19.94-16.59,25.73C171.84,51.76,177.57,42,184.51,35Zm6.73,37.55c-1.42,1-4.49.7-4.51-1.26,0-4.09,2.72-6.6,6.69-8.59C193.28,66.58,194.6,70.1,191.24,72.53Zm21.38,12.84c1.58-4.59,2.77-9.14,4.29-13.56,2.29-6.64,4.69-13.63,7.29-20.56,4-10.75,5.47-11.4,14.54-9.52C235.28,58.23,225.55,74.64,212.62,85.37Zm139.7-21.76c-2.54.55-3-1-3-4-.1-7.52,2.61-10.37,7-13.72,3.53-2.68,6.07-2.32,7.85,2.28C366.44,54,359.53,63.79,352.32,63.61ZM340.5,108c-4.22-5.2-3.79-11.75-.93-17.4,4.88-9.62,13.73-16.32,23.85-19.69-1.42,11.73-1.89,24.16-8.1,34.42C351.41,111.83,345,113.58,340.5,108Z"/><path d="M291.64,31.79c-.07,2.64-1.91,4.88-5.45,5.84-2.32-.09-4-1.11-4-3.79,0-3.11,1.86-4.9,5-5.41C290,28,291.7,29.52,291.64,31.79Z"/></g></g></svg>