<?xml version="1.0" encoding="utf-8"?>
<!-- Generator: Adobe Illustrator 21.0.0, SVG Export Plug-In . SVG Version: 6.00 Build 0)  -->
<svg version="1.1" id="Layer_1" xmlns="http://www.w3.org/2000/svg" xmlns:xlink="http://www.w3.org/1999/xlink" x="0px" y="0px"
	 viewBox="0 0 511.9 438.5" style="enable-background:new 0 0 511.9 438.5;" xml:space="preserve">
<style type="text/css">
	.st0{fill:#444444;}
</style>
<g>
	<path class="st0" d="M110.8,74.8c-0.8-6.9-7-11.9-13.9-11.1c-2.7,0.3-5.2,1.4-7.1,3.2c-1.3-7.2-8.2-12-15.4-10.6
		c-2.3,0.4-4.5,1.5-6.3,3.1c-2-14.2-15.1-24-29.2-22c-11.8,1.7-21,11.2-22.2,23c-7.2-1.7-14.5,2.7-16.2,9.9c-0.2,1-0.4,2.1-0.4,3.2
		c0,0.5,0,0.9,0.1,1.4L110.8,74.8z M469.6,340.5c-0.4-3.3-3.3-5.7-6.6-5.3c-1.3,0.1-2.4,0.7-3.4,1.5c-0.6-3.4-3.9-5.8-7.3-5.2
		c-1.2,0.2-2.2,0.7-3.1,1.5c-0.9-6.8-7.2-11.5-14-10.5c-5.7,0.8-10,5.3-10.6,11c-3.5-0.8-6.9,1.3-7.8,4.8c-0.1,0.5-0.2,1-0.2,1.5
		c0,0.2,0,0.4,0,0.7L469.6,340.5z M119.6,409.8c-0.3-2.4-2.4-4.1-4.7-3.8c-0.9,0.1-1.8,0.5-2.4,1.1c-0.4-2.5-2.8-4.1-5.3-3.6
		c-0.8,0.1-1.6,0.5-2.2,1.1c-0.7-4.8-5.1-8.2-9.9-7.6c-4.1,0.5-7.2,3.8-7.6,7.9c-2.5-0.6-4.9,1-5.5,3.4c-0.1,0.3-0.1,0.7-0.1,1.1
		c0,0.2,0,0.3,0,0.5L119.6,409.8z M385.1,153.7c-0.6-5.6-5.7-9.6-11.3-9c-2.1,0.2-4.1,1.1-5.7,2.6c-1.1-5.8-6.7-9.7-12.5-8.6
		c-1.9,0.4-3.7,1.2-5.2,2.5c-1.6-11.5-12.2-19.5-23.7-17.9c-9.6,1.3-17.1,9.1-18,18.7c-5.9-1.4-11.8,2.2-13.2,8.1
		c-0.2,0.8-0.3,1.7-0.3,2.6c0,0.4,0,0.7,0.1,1.1L385.1,153.7z M176.6,242.4c0.5-3.6-2.1-7-5.7-7.5c-0.3,0-0.6-0.1-0.9-0.1
		c-1.2,0-2.3,0.3-3.4,0.9c-1.9-4.6-7.1-6.8-11.7-4.9c-0.8,0.3-1.6,0.8-2.3,1.3c-3.2-8.9-13-13.5-21.9-10.4c-5,1.8-8.9,5.8-10.5,10.9
		c-2.9-3.1-7.8-3.3-10.9-0.4c-0.4,0.4-0.8,0.9-1.2,1.4c-3.1-3.9-8.7-4.6-12.6-1.5c-3.1,2.4-4.3,6.6-2.8,10.3L176.6,242.4z
		 M511.9,21.6c0.5-3.6-2.1-7-5.7-7.5c-0.3,0-0.6-0.1-0.9-0.1c-1.2,0-2.3,0.3-3.4,0.9c-1.9-4.6-7.1-6.8-11.7-4.9
		c-0.8,0.3-1.6,0.8-2.3,1.3C484.7,2.5,474.9-2.2,466,1c-5,1.8-8.9,5.8-10.5,10.9c-2.9-3.1-7.8-3.3-10.9-0.4
		c-0.4,0.4-0.8,0.9-1.2,1.4c-3.1-3.9-8.7-4.6-12.6-1.5c-3.1,2.4-4.3,6.6-2.8,10.3L511.9,21.6z"/>
</g>
</svg>
