<svg xmlns="http://www.w3.org/2000/svg" viewBox="0 0 511.92 438.48">
  <g data-name="Layer 2" fill="#444">
    <path d="M110.77 74.85a12.58 12.58 0 0 0-21-7.92A13.26 13.26 0 0 0 68 59.36a25.88 25.88 0 0 0-51.38 1A13.47 13.47 0 0 0 0 73.48a13.67 13.67 0 0 0 .07 1.37zm358.83 265.6a6 6 0 0 0-10-3.79 6.34 6.34 0 0 0-10.45-3.66 12.37 12.37 0 0 0-24.56.47 6.44 6.44 0 0 0-7.95 6.28 6.54 6.54 0 0 0 0 .66zm-350.01 98.03a4.28 4.28 0 0 0-7.15-2.7 4.52 4.52 0 0 0-7.44-2.58 8.81 8.81 0 0 0-17.5.33 4.59 4.59 0 0 0-5.64 4.47 4.65 4.65 0 0 0 0 .47zm265.54-284.74a10.21 10.21 0 0 0-17-6.43 10.76 10.76 0 0 0-17.68-6.14 21 21 0 0 0-41.7.8 10.93 10.93 0 0 0-13.49 10.66 11.1 11.1 0 0 0 .06 1.12zm-208.51 88.67a6.65 6.65 0 0 0-6.6-7.53 6.63 6.63 0 0 0-3.37.92 9 9 0 0 0-14-3.59 17.11 17.11 0 0 0-32.4.48 7.74 7.74 0 0 0-12.12.95 9 9 0 0 0-15.48 8.78zM511.86 21.57a6.65 6.65 0 0 0-6.6-7.53 6.63 6.63 0 0 0-3.37.92 9 9 0 0 0-14-3.59 17.11 17.11 0 0 0-32.4.48 7.74 7.74 0 0 0-12.12.95 9 9 0 0 0-15.48 8.78z" data-name="Layer 1"/>
  </g>
</svg>