<svg xmlns="http://www.w3.org/2000/svg" viewBox="0 0 574.32 107.35"><defs><style>.cls-1{fill:#fff;}</style></defs><title>contact_ribbon</title><g id="Layer_2" data-name="Layer 2"><g id="Layer_1-2" data-name="Layer 1"><path d="M570,35.52c-10.92-2.33-22-4-33-5.45-5.6-.72-11.2-1.38-16.81-2-3-.34-8.65-.08-8.08-4.51.25-2,.73-3.76.36-5.76a8.28,8.28,0,0,0-2-4c-2.33-2.61-5.87-3.84-9.07-5a149.34,149.34,0,0,0-30.86-7C454.14-.22,437.48-.25,421,.32c-9.89.34-19.78.91-29.65,1.53Q372,3.06,352.73,4.55,331.35,6.17,310,8q-21,1.8-42,3.82c-12.18,1.17-24.36,2.4-36.52,3.77-8.75,1-17.52,2-26.23,3.32-21.16,3.22-42.48,4.46-63.84,5.26-5.37.2-10.74.38-16.11.57.44-2.29.72-5.19-1.37-6.79-2.35-1.8-6.11-1.9-8.9-2.31-9.49-1.4-19.05-2.31-28.63-2.85-19.25-1.1-38.55-.74-57.8-.1A100.34,100.34,0,0,0,0,17.65c12.61,5.46,25.07,11.91,35.15,21.41a72.77,72.77,0,0,1,7.76,8.56C32,55.56,21,63.6,12.54,74.22a79.17,79.17,0,0,0-6.79,10c2.34-1.1,4.69-2.2,7-3.32-.14.14.7-.09.87-.13L15,80.48q1.49-.27,3-.47,2.68-.35,5.38-.48a72.54,72.54,0,0,1,10.8.31,107,107,0,0,1,21.12,4.58,85.75,85.75,0,0,1,9.59,3.35,9.23,9.23,0,0,1,4.94,4.31,7.79,7.79,0,0,1,.6,3.57c-.06,1.17-.52,2.43,0,3.55s1.91,1.62,3.05,2c1.66.58,3.31,1.18,5,1.71a50.72,50.72,0,0,0,10.79,2q5.81.56,11.63.95,11.6.78,23.23.9a396.48,396.48,0,0,0,46.34-2.25c9.48-1,18.86-2.63,28.32-3.83,6.68-.84,13.37-1.55,20.06-2.21q12.45-1.23,24.92-2.28Q257.82,95,271.92,94q14.92-1.16,29.84-2.23t29.91-2.13l28.37-2,25.25-1.73q10.26-.71,20.52-1.45l8-.6c3.36-.26,7.35-1,10.54.41a4.85,4.85,0,0,1,2.8,3.36c.61,2.39-.12,4.66-.26,7s1.07,4,3.45,3.84a27.86,27.86,0,0,0,4.84-1.21q2.79-.71,5.61-1.26c14.67-2.86,29.71-2.45,44.55-1.5,14.29.92,28.72,1.73,42.8,4.46a114.24,114.24,0,0,1,20.58,5.89c1.66.66,3.27,1.42,4.91,2.12,1.1.48,2.81.55,3.66-.47s-.14-2.29-.7-3.23c-1-1.7-2-3.43-3-5.15Q547.77,88,541.86,78q-3-5-6-10.06c-.71-1.19-1.87-2.64-1.63-4.13s1.66-2.61,2.59-3.65c7.77-8.67,16.92-16.55,28.49-19.38a41.7,41.7,0,0,1,4.28-.81c1.16-.16,2.82,0,3.84-.63a1.85,1.85,0,0,0,.79-1.12,1.45,1.45,0,0,0-.73-1.66C572.51,35.76,571.18,35.78,570,35.52ZM69,29.62c.23,14.63.18,29.26.14,43.89q0,6.28,0,12.56C54.3,80.48,38.61,76.65,22.7,78.14c-1.76.16-3.55.35-5.3.64a11.72,11.72,0,0,0-2.16.54c-.84.31-1.44.95-2.22,1.3-.41.19.06.28-.56,0a2.51,2.51,0,0,1-.53-.36,2.16,2.16,0,0,1-.62-.7,1.37,1.37,0,0,1,.09-1.31,16.25,16.25,0,0,1,2-2.22A130.08,130.08,0,0,1,27.74,61,93.93,93.93,0,0,1,47.48,47.56c-7.71-10.71-18.6-18.29-30.1-24.45-3.48-1.87-7-3.62-10.59-5.34a278.61,278.61,0,0,1,42.45-3.84A381.23,381.23,0,0,1,90.85,15.7c7.85.73,15.68,1.66,23.5,2.7C106.56,19.7,98.84,21.21,91,22c-3.87.38-7.76.66-11.65.75-2.52.06-5.69-.46-8,.81C69.15,24.72,68.94,27.42,69,29.62Zm167.7,60.47C221,93,205.38,96,189.65,98.38a421.17,421.17,0,0,1-47.21,4.83c-8,.31-16,.19-24.06,0s-15.93-.3-23.86-1c-4-.34-7.94-.83-11.86-1.56a12.52,12.52,0,0,1-6.17-2.51,8.56,8.56,0,0,1-2.54-5.88c-.31-3.76,0-7.64,0-11.42q0-12.25-.27-24.5-.15-6.07-.38-12.14c-.14-3.64-.54-7.36-.39-11,.08-1.83.39-3.91,1.78-5.23s3.46-1.53,5.28-1.53c3.67,0,7.38.48,11.05.7q6.15.37,12.3.62c16.15.65,32.32.63,48.46-.2,10.9-.56,21.8-1.46,32.68-2.37q17.38-1.46,34.73-3.17,18.59-1.82,37.15-3.91,17.8-2,35.55-4.35c10.19-1.36,20.37-2.81,30.51-4.53,7.07-1.2,14.15-2.15,21.29-2.85,9.15-.89,18.32-1.52,27.5-2Q387,3.53,402.86,3.26c10.73-.19,21.46-.19,32.19.05,9.89.22,19.79.64,29.65,1.46a196.63,196.63,0,0,1,23.55,3.11c7.24,1.49,16.53,3.43,19.37,11.22a23.88,23.88,0,0,1,1.21,7.79q.1,6,.31,12c.28,8.06.67,16.11.86,24.18.18,7.77.17,15.55-.3,23.31-15.24-1.92-30.44-4.26-45.74-5.69-5.61-.52-11.25-.76-16.88-.93-7.5-.23-15-.3-22.52-.31q-13.32,0-26.64.25-14.59.26-29.17.74-15.13.49-30.26,1.19-14.75.68-29.49,1.56Q295.34,84,281.7,85c-7.84.62-15.67,1.3-23.48,2.14-6,.64-12.1,1.36-18.11,2.33Q238.39,89.77,236.67,90.09ZM531.8,60.53c-1.64,2-2.35,4-1.25,6.36,1.29,2.8,3.27,5.39,4.86,8,3.41,5.64,6.69,11.35,10,17.06q2.87,5,5.77,10A314,314,0,0,0,511.32,94a308.3,308.3,0,0,0-40.07-2.64q-11.5,0-23,.8a29.46,29.46,0,0,1,8.46-2.79A103.68,103.68,0,0,1,469,87.61c8.25-.76,16.74-1,24.95.31,4.11.66,8.28,1.38,12.44,1.65,1.8.11,4.07.24,5.53-1s1.7-3.54,1.87-5.34c.39-4.06.33-8.19.39-12.27a330.48,330.48,0,0,0-1.66-40.25l39.81,5.49,11,1.51A82,82,0,0,0,531.8,60.53Z"/><path class="cls-1" d="M531.52,68.39c6.91,10.9,13.14,22.21,19.64,33.35a314,314,0,0,0-39.84-7.94,308.3,308.3,0,0,0-40.07-2.64q-11.5,0-23,.8a29.46,29.46,0,0,1,8.46-2.79A103.68,103.68,0,0,1,469,87.38c8.25-.76,16.74-1,24.95.31,4.11.66,8.28,1.38,12.44,1.65,1.8.11,4.07.24,5.53-1s1.7-3.54,1.87-5.34c.39-4.06.33-8.19.39-12.27a330.48,330.48,0,0,0-1.66-40.25l39.81,5.49,11,1.51A82,82,0,0,0,532.22,59.8c-1,1.2-2.13,2.52-2.26,4.16A7.52,7.52,0,0,0,531.52,68.39Z"/><path class="cls-1" d="M509.69,86.11c-17.62-2.23-35.22-5.22-53-6.22-10.29-.58-20.61-.69-30.91-.71-13.39,0-26.78.18-40.16.51q-22.06.54-44.1,1.53-21.55,1-43.07,2.37c-12.34.82-24.67,1.76-37,3-9.48,1-18.91,2.17-28.28,3.91-22.2,4.14-44.43,8.33-66.91,10.71a337.85,337.85,0,0,1-33.83,2c-5.68,0-11.36-.18-17-.32s-11.35-.26-17-.62a113.91,113.91,0,0,1-16.7-2c-2.95-.64-5.8-1.93-7-4.87a13.87,13.87,0,0,1-.8-5.59Q74,85.4,74,81q0-8.56-.11-17.13-.14-8.76-.45-17.52-.15-4.28-.34-8.56a34.35,34.35,0,0,1,0-6.31c.39-2.75,1.88-4.64,4.68-5.12a22.82,22.82,0,0,1,5.57,0q4.26.31,8.53.57a532.9,532.9,0,0,0,68.57-.15c14.94-1,29.85-2.61,44.73-4.26,17.48-1.94,34.94-4.05,52.4-6.17,16.39-2,32.79-4,49.19-5.87,15.16-1.72,30.34-3.19,45.55-4.34,17.92-1.35,35.88-2.33,53.84-2.79,17-.44,34.05-.48,51,.52,12.88.76,26.2,1.8,38.58,5.66a23.36,23.36,0,0,1,8.16,3.95,13.4,13.4,0,0,1,4.37,7.67,32.06,32.06,0,0,1,.56,6.26q.06,4.12.2,8.24c.18,5.76.44,11.52.65,17.28C510.1,64,510.36,75.07,509.69,86.11Z"/><path class="cls-1" d="M114.35,18.18c-7.4,1.23-14.74,2.68-22.21,3.46-3.74.39-7.49.69-11.25.82-1.86.07-3.72,0-5.58.07a10.86,10.86,0,0,0-3.08.4,4.48,4.48,0,0,0-3.09,3.83A22.78,22.78,0,0,0,69,31q0,2.88.07,5.75c.08,7.68.09,15.35.08,23,0,8.69-.05,17.39-.05,26.08C54.3,80.25,38.61,76.42,22.7,77.9c-1.76.16-3.55.35-5.3.64a11.72,11.72,0,0,0-2.16.54c-.84.31-1.44.95-2.22,1.3-.41.19.06.28-.56,0a2.51,2.51,0,0,1-.53-.36,2.16,2.16,0,0,1-.62-.7A1.37,1.37,0,0,1,11.41,78a16.25,16.25,0,0,1,2-2.22A130.08,130.08,0,0,1,27.74,60.76,93.93,93.93,0,0,1,47.48,47.33C39.77,36.62,28.88,29,17.38,22.87c-3.48-1.87-7-3.62-10.59-5.34A278.61,278.61,0,0,1,49.24,13.7a381.23,381.23,0,0,1,41.62,1.77C98.7,16.21,106.54,17.13,114.35,18.18Z"/><path d="M365.68,27.76c-5.11,3.15-10.15,6.65-16.46,6,1.75-4,3.4-8.09,5.22-12.07.55-1.2,1.19-2.76-.59-3a39.06,39.06,0,0,1-3.86-1,4.53,4.53,0,0,0-3.89.31c-1.44,1-1.83,3-2.46,4.53-1.21,3-3,5.75-6.3,6.45-2.25.47-4.48-.19-6.7.59a12.65,12.65,0,0,0-5.86,4.67c4.81-1.66,9.86-1.15,14.8-.44a55.13,55.13,0,0,1-20.05,31.58,36.35,36.35,0,0,1-8.62,5.51c-2.23.88-6,1.61-7.87-.37s-.58-5.84,0-8.13a22.76,22.76,0,0,1,4.48-8.9,38.54,38.54,0,0,1,3.82-3.71A5.59,5.59,0,0,1,315.61,48c1.58.18,2.81,1.08,2.63,2.75-.15,1.4-.88,2.81-.46,4.23a5.85,5.85,0,0,0,1.93-4.79,6.81,6.81,0,0,0-1.85-4.42c-2.15-1.92-5.61-1.17-8-.25a33,33,0,0,0-14.66,11.76,17.91,17.91,0,0,0-2,3.65,22.13,22.13,0,0,1-1.63,4.15,12.35,12.35,0,0,1-3.34,3.29c-.61.44-1.24.84-1.87,1.25l-.89.58c-.17.12-.9.77-1.1.76s-.65-1.08-.72-1.31a3.12,3.12,0,0,1-.1-1.19,12.58,12.58,0,0,1,.6-2.29,54.83,54.83,0,0,1,2.13-6,47.83,47.83,0,0,1,2.85-5.62c.92-1.55,2.06-3,3-4.5.67-1.11.6-2-.71-2.47a17.54,17.54,0,0,0-4.61-.82,5.58,5.58,0,0,0-3.6.69,6.23,6.23,0,0,0-2.21,4.19c-4.2-5.78-11.92-4.49-17.42-1.51a26.9,26.9,0,0,0-8,6.56,18.37,18.37,0,0,0-2.57,4.07,30.38,30.38,0,0,0-1.23,4.68c-1.27,4.64-5.8,6.85-9.42,9.42-.2-.7-.75-1.54-.63-2.29a14,14,0,0,1,.82-2.16c.49-1.4.91-2.83,1.3-4.27.81-3,1.5-6,2.41-8.92,1.83-5.91,4.77-11.4,10.28-14.6,1.8-1,3.76-1.55,5.63-2.43,1.56-.73.87-1.73.12-2.89-2.68,2-5.53,3.72-8.91,4.19q1.89-4.29,3.77-8.57l1.79-4.11a8.42,8.42,0,0,0,1-2.68c.08-1.77-3-1.67-4.22-1.83-1.56-.21-3.33-.29-4.61.79a5.32,5.32,0,0,0-1.52,2.49,23.33,23.33,0,0,1-1.47,3.7A23.9,23.9,0,0,0,246.48,35a5.79,5.79,0,0,1-1.23,2.28c-1.36,1.39-3.3,1-5,.62a6.74,6.74,0,0,0-4.84,1.25,18.69,18.69,0,0,0-4.9,4.75,11.1,11.1,0,0,0-2.41,5c2.82-1.74,4.89-4.47,7.45-6.54a10.44,10.44,0,0,1,4-2.2,5.87,5.87,0,0,1,2.19-.11,6.21,6.21,0,0,1,1.15.28,2,2,0,0,1,.47.18q.43.05.15.45l-.13.51a90.86,90.86,0,0,1-10.21,24.92c-3.58,5.81-8.46,12-15.18,14.28-.47.16-.61.28-.94-.18a3.3,3.3,0,0,1-.56-1.18,5.7,5.7,0,0,1,.29-3c.7-2.3,1.64-4.53,2.54-6.76.83-2,1.66-4.1,2.3-6.21a7.73,7.73,0,0,0,.19-5.25,4.67,4.67,0,0,0-5.36-2.76,11.71,11.71,0,0,0-3.2,1.57c-1,.65-2.11,1.25-3.13,1.92C206,61.62,203,65.78,199.1,68.83c.4-3.32,1.68-8.43-2.19-10.21-2.64-1.21-6.19-.92-9-.66-1.45.14-2.89.54-4.34.62a1.93,1.93,0,0,1-1.92-.74c-.51-.87-.22-2.05-.23-3a6.94,6.94,0,0,0-.75-3.24A6.8,6.8,0,0,0,176,48.46a10.26,10.26,0,0,0-6.71.43,7.81,7.81,0,0,0-4.34,5.9c-.27,2.62,2,4.06,4,5.29a19.82,19.82,0,0,0,9.38,2.71,75.86,75.86,0,0,1-6.1,11.71,27.87,27.87,0,0,1-10.12,9.1c-.16-7.62,4.72-13.16,8.18-19.47-2.27-.05-4.24-1.35-6.43-1.77-2.72-.52-4,1.24-5.22,3.41A28.49,28.49,0,0,1,147.3,76.7a112.39,112.39,0,0,1-14.39,6.24c-5.51,2.14-6.71-5.1-5.9-9A17,17,0,0,1,130.33,67a36.31,36.31,0,0,1,6.1-5.53c.94-.76,2.07-1.66,3.36-1.55,1,.09,2.07.74,1.93,1.84a14.81,14.81,0,0,1-1,2.51,1.85,1.85,0,0,0-.06,1.31c.48.85,1.07-.05,1.45-.52a5.35,5.35,0,0,0-.3-7.44c-1.92-2-4.42-2-7-1.57-5.35.85-10.44,3.21-13.55,7.81-3.47,5.14-8,9-13,12.6-2.51,1.8-5,3.84-7.87,5.07a28.83,28.83,0,0,1-8.95,2c-1.57.13-3.15.21-4.72.29A21.89,21.89,0,0,0,103,82.68c5-2.34,9.19-6,13.41-9.43,1.62,4.44,3.74,10.24,8.62,12a14.21,14.21,0,0,0,6.88.33,32.19,32.19,0,0,0,9.88-2.91c3.94-2,7.37-5,11.53-6.59.53,3.44,2.12,7.24,5.59,8.6s7-.23,9.71-2.28a29.7,29.7,0,0,0,8.58-10.49,53,53,0,0,0,2.44-6.25,8.76,8.76,0,0,1,3-4.33,8.91,8.91,0,0,1,4.45-1.49c1.29-.12,3.68-.44,4.72.56,1.24,1.19-.3,3.85-.8,5a61.5,61.5,0,0,1-3.49,7c-1.24,2.17-2.54,4.35-4,6.4-.66,1-2.67,2.73-1.14,3.77a16.27,16.27,0,0,0,2.34,1,9.94,9.94,0,0,0,2.94,1c2.33.27,3.67-1.52,4.81-3.28,1.55-2.38,2.9-4.82,4.65-7.08,1.54-2,3.12-3.94,4.81-5.8a45.86,45.86,0,0,1,12.44-9.93,24.74,24.74,0,0,1-2.12,10.67c-1.27,3.08-2.9,6-3.91,9.22a4.61,4.61,0,0,0,5,6.39,24.16,24.16,0,0,0,9.78-4.09c3.6-2.39,6.81-5.33,10.26-7.93-.14,1.24-.46,3.12.27,4.26.55.86,1.62.82,2.52.72a38.79,38.79,0,0,0,5.17-1,15.12,15.12,0,0,0,5.71-3.2c.82-.67,1.62-1.36,2.44-2,.37-.3.75-.6,1.13-.88l.7-.5.48-.31q.28-.34.39.08a14.35,14.35,0,0,1,1.62,2.2A14.73,14.73,0,0,0,255.54,74a6.78,6.78,0,0,0,6.76,1.38c4.49-1.34,8.56-4.42,12.47-6.88,1.13,2.38,2.69,5.34,5.72,5.26a11.48,11.48,0,0,0,4.68-1.51,69.83,69.83,0,0,0,7.09-4.31c2.72,4.61,6.83,8.28,12.51,7.43,6.48-1,12-5.62,16.54-10.05,3-2.91,5.72-6,8.61-9,.66.62.35,1.44.21,2.21s-.27,1.58-.37,2.37a14.4,14.4,0,0,0,0,4.43c.63,3.41,3.66,5.56,7,6,3.61.49,6.88-1.46,9.41-3.86A132.81,132.81,0,0,0,355,57.63c1.67-1.93,3.33-3.88,5-5.81,1.3-1.49,3.74-3.22,2-5.21-3.9,4.81-7.55,9.84-11.83,14.33-2,2.13-4.31,3.92-6.42,5.95a4.19,4.19,0,0,1-2.62,1.51,2.75,2.75,0,0,1-2.57-2,7.21,7.21,0,0,1,.21-3.25c.27-1.43.47-2.88.79-4.3a71.13,71.13,0,0,1,2.81-9.2c1.14-3.07,2.41-6.09,3.65-9.12.48-1.17.81-2.72,1.68-3.66s2.18-.77,3.37-.83a23.22,23.22,0,0,0,9.53-3c1.42-.75,2.82-1.55,4.18-2.4C366,30,366.43,29.06,365.68,27.76ZM119.27,73.36c.3-8.76,10.31-14.39,18-15.31C133.44,60.88,129.5,64,127,68.14a17.27,17.27,0,0,0-1.29,14.24,8.55,8.55,0,0,1-5.23-3.48A9.71,9.71,0,0,1,119.27,73.36Zm40.36,9.35c-2.61-1.72-4.45-4.22-3.73-7.45.53-2.41,1.9-4.66,2.95-6.88.91-1.94,2.22-4.21,4.69-4a5.68,5.68,0,0,1,2,.55c.2.09,1.11.44,1.16.63s-.62,1.09-.75,1.32c-.86,1.49-1.77,3-2.6,4.47A26.08,26.08,0,0,0,159.63,82.71Zm8.31-28.56c.84-2.23,3.11-2.94,5.28-3.23l-1.88,3.34-.91,1.61c-.14.25-.64,1.52-.91,1.62-.55.21-1.54-1-1.7-1.4A2.78,2.78,0,0,1,167.93,54.15Zm11.24,4c-1.73,3.4-5.16.87-7.93.91,1.35-2.31,2.57-6.28,5.71-6.6S180.28,56,179.17,58.2Zm18,7.76a26.88,26.88,0,0,1-5.08,11.21c-1.56,2-4.22,4.75-7.06,4.13,3.31-7.15,8.57-13.41,9.35-21.53,1.41.32,2.79,1.05,3.12,2.57A8.87,8.87,0,0,1,197.14,66Zm17.2,13.92a7.81,7.81,0,0,1,.37,1.9c-.11.9-1.06,1.11-1.84,1.1-1.82,0-3.19-1.11-2.81-3a41.78,41.78,0,0,1,2.21-6.16c.86-2.29,1.73-4.58,2.58-6.88a32,32,0,0,0,1.09-3.2c.13-.51.22-1,.32-1.55a8.14,8.14,0,0,0,.33-1.8c-.07-.7-.64-1.22-.24-2a2,2,0,0,1,1.57-.86c4.39-.63,1.32,7.19.63,9-.83,2.2-1.69,4.4-2.58,6.58S214,77.46,214.33,79.88Zm32.5-41.3c1.35-3.43,2.48-7,4.1-10.28.63-1.29,1.27-2.5,2.88-2.47a18.41,18.41,0,0,1,3.87,1c-1.86,4-3.74,8.09-5.58,12.14-.67,1.48-1.12,3.29-3.07,2.61C247.67,41.09,246.17,40.26,246.83,38.58Zm-6.78,36.68c-1.76.38-3.89.33-4.56-1.66s0-4.76.53-6.79c1.38-5.83,4.1-11.21,6.34-16.74a24.22,24.22,0,0,0,1.31-3.54c.16-.69.19-1.41.37-2.1.5-2,2.06-2.16,3.78-1.38,2.11,1,1.69,2.59.77,4.3-1.3,2.42-2.09,5.14-3.15,7.68-1.4,3.37-2.86,6.71-4.13,10.13C240.1,68.4,239.25,71.81,240.05,75.26Zm14.69-11.38c.14-8.16,7.63-12.73,14.77-14.42A36.56,36.56,0,0,0,262,59.64a20.91,20.91,0,0,0-1.43,12.53C257.15,70.51,254.68,67.88,254.74,63.88ZM265.9,71.5c-4.26,1.8-3.93-4.19-3.32-6.69a27.58,27.58,0,0,1,5.18-10.31,18,18,0,0,1,3.77-3.7c1.16-.8,2.71-1.68,4.1-1.11,1.72.7,3.94,1.92,3.7,4.11a16.1,16.1,0,0,1-1,3.39A34.92,34.92,0,0,1,277,60.43,21.7,21.7,0,0,1,265.9,71.5Zm12.36-7.57c1.69-4.33,3.1-8.86,5.11-13.06.67-1.41,1.42-2.57,3.12-2.3,1.1.17,2.16.54,3.25.77-4.08,7.16-8.48,14.35-8.72,22.84-1.69-.68-3.34-1.83-3.64-3.75A8.87,8.87,0,0,1,278.27,63.93Zm18.32,5c-1.62-8.23,4.74-16.6,11.94-19.79a32.23,32.23,0,0,0-7.2,11.14,22.65,22.65,0,0,0-.58,12.47,5,5,0,0,1-3.06-1A5.26,5.26,0,0,1,296.58,68.91Zm48.13-30.42c-4.12,9.59-8.45,19.45-8.31,30.1a4.48,4.48,0,0,1-4.57-4.41c-.36-3.59.71-7.54,1.71-11a102.33,102.33,0,0,1,4-10.82c.74-1.76,1.5-3.51,2.22-5.28q.53-1.29,1-2.58.28-.73.56-1.47c.24-.66.17-.88.86-.64,1.16.41,2.56,1,3,2.25S345.21,37.35,344.71,38.49Zm2.78-7c-2,2.45-4.22-1.62-4.26-3.41a9.22,9.22,0,0,1,1.33-4.46c.63-1.17,1.39-3.21,2.69-3.76,1.13-.48,2.68-.13,3.86,0,1.37.1,1.77,1.19,1.2,2.4C350.84,25.41,349.73,28.81,347.49,31.53Z"/><path d="M344.71,38.49c-4.12,9.59-8.45,19.45-8.31,30.1a4.48,4.48,0,0,1-4.57-4.41c-.36-3.59.71-7.54,1.71-11a102.33,102.33,0,0,1,4-10.82c.74-1.76,1.5-3.51,2.22-5.28q.53-1.29,1-2.58.28-.73.56-1.47c.24-.66.17-.88.86-.64,1.16.41,2.56,1,3,2.25S345.21,37.35,344.71,38.49Z"/><path d="M352.59,21.7c-1.54,3.11-2.59,6.51-4.7,9.32-.76,1-1.65,1.66-2.82.83a4.6,4.6,0,0,1-1.75-2.77,7.71,7.71,0,0,1,.94-4.84c.33-.67.71-1.32,1.09-2a7.9,7.9,0,0,1,1.3-2c1-.9,2.52-.51,3.73-.43S352.76,20,352.59,21.7Z"/><path d="M300.74,72.73c-1.76-.17-3.23-.54-3.82-2.36a13.13,13.13,0,0,1-.48-5.37,19.63,19.63,0,0,1,5.38-11.15,20.94,20.94,0,0,1,6.69-4.73,32.23,32.23,0,0,0-7.2,11.14A22.65,22.65,0,0,0,300.74,72.73Z"/><path d="M289.74,49.34c-4.08,7.16-8.48,14.35-8.72,22.84a5.66,5.66,0,0,1-3.45-3,5.81,5.81,0,0,1,.12-3.66c1-3.44,2.56-6.79,3.84-10.15a33.6,33.6,0,0,1,2.34-5.47,2.39,2.39,0,0,1,1.94-1.41A17.07,17.07,0,0,1,289.74,49.34Z"/><path d="M260.59,72.17a10.52,10.52,0,0,1-5-4.2,9.45,9.45,0,0,1-.72-6,13.93,13.93,0,0,1,6.69-9.32,26.3,26.3,0,0,1,7.91-3.16A36.56,36.56,0,0,0,262,59.64,20.91,20.91,0,0,0,260.59,72.17Z"/><path d="M257.68,26.82q-2.05,4.45-4.11,8.91-1,2.12-1.94,4.25c-.48,1.07-1,2-2.28,1.7a4.29,4.29,0,0,1-2.48-1.45c-.66-1.1.36-2.68.75-3.72A87.2,87.2,0,0,1,251.1,28c.62-1.23,1.34-2.21,2.84-2.13A21.1,21.1,0,0,1,257.68,26.82Z"/><path d="M247.89,48.77c-1.63,4.59-3.67,9-5.48,13.54-1.65,4.11-3.4,8.46-2.35,13-1.3.28-3,.43-4-.64a4.31,4.31,0,0,1-.8-3.14c.18-4.08,1.62-8.17,3.11-11.94,1.58-4,3.44-7.87,4.93-11.9.58-1.57.31-5,2.64-5.05,1.4,0,3.54.9,3.47,2.54C249.37,46.46,248.32,47.55,247.89,48.77Z"/><path d="M220.17,60.08c-.4,4.32-2.45,8.37-4,12.37-.72,1.88-1.69,3.71-1.89,5.74a7.41,7.41,0,0,0,.23,2.54c.17.69.35,1.43-.35,1.88-1.34.85-4,0-4.2-1.64a4.49,4.49,0,0,1,.35-2.06c.39-1.13.82-2.26,1.24-3.38.86-2.29,1.73-4.58,2.59-6.88a38.67,38.67,0,0,0,2.11-6.73,7,7,0,0,0,.3-1.63c0-.45-.39-.83-.39-1.32a1.45,1.45,0,0,1,1.18-1.4C219.33,57,220.35,58.21,220.17,60.08Z"/><path d="M197.14,66a26.88,26.88,0,0,1-5.08,11.21c-1.56,2-4.22,4.75-7.06,4.13,3.31-7.15,8.57-13.41,9.35-21.53,1.41.32,2.79,1.05,3.12,2.57A8.87,8.87,0,0,1,197.14,66Z"/><path d="M173.21,50.92l-3,5.28c-.13.23-.5,1.21-.73,1.29s-.85-.38-1-.5a2,2,0,0,1-.81-1.45C167.43,52.49,170.81,51.24,173.21,50.92Z"/><path d="M166.65,65.52c-3,5.5-6.72,10.68-7,17.19-2.13-1.41-4-3.43-3.91-6.14.08-2.18,1.21-4.17,2.14-6.09.82-1.69,1.45-3.65,2.8-5C162.42,63.7,164.74,64.32,166.65,65.52Z"/><path d="M125.73,82.38a8.35,8.35,0,0,1-5.5-4,10.34,10.34,0,0,1-.87-6.14c.7-4.91,4.65-8.84,8.78-11.21a24.22,24.22,0,0,1,9.13-3C133.44,60.88,129.5,64,127,68.14A17.27,17.27,0,0,0,125.73,82.38Z"/><path d="M471.85,41.2c-2.2,2.63-4.31,5.32-6.5,7.95-1.93,2.32-4,4.5-6,6.74-3.57,4-7,8.07-12.16,10a15.08,15.08,0,0,0-1-10.09c-.78-1.49-2-2.69-2.67-4.26a4.4,4.4,0,0,1,.61-4.35c1.09-1.5,2.55-2.49,2.6-4.52a5.84,5.84,0,0,0-2.29-4.49c-2.69-2.17-6.6-.75-9,1.27a7.66,7.66,0,0,0-2.35,7.05,27.84,27.84,0,0,0,.95,4.18c.41,1.46.47,2.84-.66,4-1.4,1.42-3.14,2.61-4.68,3.87s-3.22,2.65-4.87,3.93c-1.08.84-3.14,2.45-4.59,1.44-1-.68-.38-2.49-.27-3.46a17,17,0,0,1,2.17-5.88c.83-1.59,1.58-3.21,2.34-4.83q2.6-5.55,5.19-11.11c-2.35,1.56-4.7,1.12-7.32.87a3.75,3.75,0,0,0-2.69.51c-1.1.82-1.77,2.39-2.54,3.5a81,81,0,0,1-13.3,14.52c-1.3,1.13-2.63,2.23-4,3.31a4.35,4.35,0,0,1-4.25,1.09c2.85-7.56,7.53-14.23,11.28-21.35-2.34-.57-5.06-1.68-7.44-.74a6.46,6.46,0,0,0-3,2.9,30.15,30.15,0,0,1-3.2,4.42,61.27,61.27,0,0,1-7.91,7.09,104.9,104.9,0,0,1-8.44,6.3,37.56,37.56,0,0,1-11,5c9.35.26,16-6.5,23.24-11.36-.5,3.11-1.42,9,2.49,10.42a9.68,9.68,0,0,0,5.77-.26c3-.89,5.5-2.93,7.78-5l8.25-7.63c-.67,3.18-1.72,6.44-1.73,9.72A6,6,0,0,0,416.72,68c2,.08,3.6-.94,5.23-1.92a53.31,53.31,0,0,0,4.67-3.15c3.25-2.46,6.4-5,9.6-7.54,1.62,2.77,5,6.56,1.92,9.57-2.35,2.29-5-1.28-7.35-1.73.74,3.15,4.89,4.73,7.68,5.32,4,.84,7.78-.21,11.38-1.92,6.91-3.28,11.87-9.21,16.29-15.28,1.26-1.72,2.48-3.47,3.73-5.2q.93-1.29,1.89-2.57c.21-.28.67-.7.67-1S472,41.56,471.85,41.2ZM392.29,62.52c-.46,1.34-1.63.43-2.16-.34a3.55,3.55,0,0,1-.62-1.95,12.09,12.09,0,0,1,1.13-4.83,30.29,30.29,0,0,1,7.13-10.55c1.32-1.23,3-2.55,4.82-2.77C399.06,48.83,394.83,55.29,392.29,62.52Zm23.25,2.67c-2.87-3.5-2.62-7.57-1.16-11.62.68-1.89,1.52-3.73,2.15-5.64a26.69,26.69,0,0,1,1.28-3.48,5,5,0,0,1,2.37-2.56,3.9,3.9,0,0,1,1.85-.26,6,6,0,0,1,1.08.2c.24.06,1.41.32,1.52.58s-.37,1.19-.44,1.4q-.19.55-.41,1.1c-.38,1-.82,1.89-1.28,2.8-.86,1.72-1.82,3.39-2.75,5.08C417.64,56.65,415.73,60.71,415.54,65.19Zm27.11-24.87c1.75-1.29,2.21,1.7,1.89,2.81-.44,1.53-1.92,2.53-3.16,3.4C440.71,44.28,440.58,41.86,442.65,40.32ZM436.83,51.5c-3-6.15-2.46-9.08,2.77-10.93C437.43,44.21,441.93,48.55,436.83,51.5Zm8.54,12.27a3.86,3.86,0,0,1-4.86,2.71c1.88-2.39.82-5-.19-7.53-1.17-2.9-1.66-5.71.39-8.36C442.81,54.73,447.07,58.74,445.38,63.77Z"/><path d="M445.38,63.77a3.86,3.86,0,0,1-4.86,2.71c1.88-2.39.82-5-.19-7.53-1.17-2.9-1.66-5.71.39-8.36C442.81,54.73,447.07,58.74,445.38,63.77Z"/><path d="M436.83,51.5c-3-6.15-2.46-9.08,2.77-10.93C437.43,44.21,441.93,48.55,436.83,51.5Z"/><path d="M424.64,42.41c-2.23,7.95-8.73,14.23-9.09,22.78a10,10,0,0,1-2-8.69c.62-2.94,2-5.64,3-8.48.58-1.73,1-3.66,2.27-5.07C420.35,41.14,422.65,41.47,424.64,42.41Z"/><path d="M402.6,42.09c-2.32,4.41-4.9,8.68-7.15,13.13a62.69,62.69,0,0,0-3,6.79c-.25.68-.5,1.51-1.37,1.12a3.13,3.13,0,0,1-1.38-1.71c-.75-2,.33-4.65,1.13-6.51a32.41,32.41,0,0,1,5-8C397.5,45,399.85,42.42,402.6,42.09Z"/><path d="M490.08,59.69a3.67,3.67,0,0,0-4.13,4.06c.29,2,1.75,4.23,4,4.13A4.19,4.19,0,0,0,494.06,64,4.12,4.12,0,0,0,490.08,59.69Zm2.11,4.12A2.32,2.32,0,0,1,490,65.95a1.9,1.9,0,0,1-2-2.19c.08-1,1-2.23,2.11-2.15A2.15,2.15,0,0,1,492.18,63.81Z"/><path d="M492.18,63.81A2.32,2.32,0,0,1,490,65.95a1.9,1.9,0,0,1-2-2.19c.08-1,1-2.23,2.11-2.15A2.15,2.15,0,0,1,492.18,63.81Z"/><path d="M491.14,42.79c-2.53,0-3.47,2-3,4.27s2,3.91,4.44,3.59,3.26-2.1,2.93-4.27A4.17,4.17,0,0,0,491.14,42.79Zm.89,6.33c-2.83.32-3.3-4.37-.39-4.45a2.13,2.13,0,0,1,2.45,2A2.35,2.35,0,0,1,492,49.12Z"/><path d="M494.08,46.64A2.36,2.36,0,0,1,492,49.12a2.1,2.1,0,0,1-2.36-2.06,2,2,0,0,1,2-2.39A2.14,2.14,0,0,1,494.08,46.64Z"/></g></g></svg>