<svg xmlns="http://www.w3.org/2000/svg" viewBox="0 0 206.04 206.15"><defs><style>.cls-1{fill:#323232;}.cls-1,.cls-2{fill-rule:evenodd;}.cls-2{fill:#fefefe;}</style></defs><title>facebook</title><g id="Layer_2" data-name="Layer 2"><g id="_3" data-name="3"><path class="cls-1" d="M45.36,0H160.68A45.54,45.54,0,0,1,206,45.36V160.68a45.56,45.56,0,0,1-45.36,45.46H45.36A45.5,45.5,0,0,1,0,160.68V45.36A45.48,45.48,0,0,1,45.36,0Z"/><path class="cls-2" d="M112.93,79.72v-10c0-4.77,3.22-5.92,5.5-5.92h13.91V42.56h-19.2c-21.28,0-26.06,15.78-26.06,26V79.72H74.74v24.81H87.19v62H112v-62h18.37l.83-9.76,1.45-15.05Z"/></g></g></svg>